<mxfile host="app.diagrams.net" agent="Mozilla/5.0 (Windows NT 10.0; Win64; x64) AppleWebKit/537.36 (KHTML, like Gecko) Chrome/130.0.0.0 Safari/537.36" version="24.8.3">
  <diagram id="C5RBs43oDa-KdzZeNtuy" name="Page-1">
    <mxGraphModel dx="1434" dy="746" grid="1" gridSize="10" guides="1" tooltips="1" connect="1" arrows="1" fold="1" page="1" pageScale="1" pageWidth="827" pageHeight="1169" math="0" shadow="0">
      <root>
        <mxCell id="WIyWlLk6GJQsqaUBKTNV-0" />
        <mxCell id="WIyWlLk6GJQsqaUBKTNV-1" parent="WIyWlLk6GJQsqaUBKTNV-0" />
        <mxCell id="hb_F8Q6Ic74j5p_9CmOz-0" style="edgeStyle=orthogonalEdgeStyle;rounded=0;orthogonalLoop=1;jettySize=auto;html=1;exitX=0.5;exitY=1;exitDx=0;exitDy=0;" edge="1" parent="WIyWlLk6GJQsqaUBKTNV-1" source="hb_F8Q6Ic74j5p_9CmOz-1" target="hb_F8Q6Ic74j5p_9CmOz-27">
          <mxGeometry relative="1" as="geometry" />
        </mxCell>
        <mxCell id="hb_F8Q6Ic74j5p_9CmOz-1" value="Inicio" style="ellipse;whiteSpace=wrap;html=1;" vertex="1" parent="WIyWlLk6GJQsqaUBKTNV-1">
          <mxGeometry x="330" y="100" width="120" height="80" as="geometry" />
        </mxCell>
        <mxCell id="hb_F8Q6Ic74j5p_9CmOz-2" style="edgeStyle=orthogonalEdgeStyle;rounded=0;orthogonalLoop=1;jettySize=auto;html=1;exitX=0.5;exitY=1;exitDx=0;exitDy=0;entryX=0.5;entryY=0;entryDx=0;entryDy=0;" edge="1" parent="WIyWlLk6GJQsqaUBKTNV-1" source="hb_F8Q6Ic74j5p_9CmOz-3" target="hb_F8Q6Ic74j5p_9CmOz-6">
          <mxGeometry relative="1" as="geometry" />
        </mxCell>
        <mxCell id="hb_F8Q6Ic74j5p_9CmOz-3" value="Criar período sazonal" style="rounded=0;whiteSpace=wrap;html=1;" vertex="1" parent="WIyWlLk6GJQsqaUBKTNV-1">
          <mxGeometry x="330" y="330" width="120" height="60" as="geometry" />
        </mxCell>
        <mxCell id="hb_F8Q6Ic74j5p_9CmOz-4" style="edgeStyle=orthogonalEdgeStyle;rounded=0;orthogonalLoop=1;jettySize=auto;html=1;exitX=0;exitY=0.5;exitDx=0;exitDy=0;entryX=0.5;entryY=0;entryDx=0;entryDy=0;" edge="1" parent="WIyWlLk6GJQsqaUBKTNV-1" source="hb_F8Q6Ic74j5p_9CmOz-6" target="hb_F8Q6Ic74j5p_9CmOz-8">
          <mxGeometry relative="1" as="geometry" />
        </mxCell>
        <mxCell id="hb_F8Q6Ic74j5p_9CmOz-5" style="edgeStyle=orthogonalEdgeStyle;rounded=0;orthogonalLoop=1;jettySize=auto;html=1;exitX=1;exitY=0.5;exitDx=0;exitDy=0;entryX=0.5;entryY=0;entryDx=0;entryDy=0;" edge="1" parent="WIyWlLk6GJQsqaUBKTNV-1" source="hb_F8Q6Ic74j5p_9CmOz-6" target="hb_F8Q6Ic74j5p_9CmOz-10">
          <mxGeometry relative="1" as="geometry" />
        </mxCell>
        <mxCell id="hb_F8Q6Ic74j5p_9CmOz-6" value="Definir&lt;div&gt;período&lt;/div&gt;&lt;div&gt;sazonal&lt;/div&gt;" style="rhombus;whiteSpace=wrap;html=1;" vertex="1" parent="WIyWlLk6GJQsqaUBKTNV-1">
          <mxGeometry x="340" y="440" width="100" height="95" as="geometry" />
        </mxCell>
        <mxCell id="hb_F8Q6Ic74j5p_9CmOz-7" style="edgeStyle=orthogonalEdgeStyle;rounded=0;orthogonalLoop=1;jettySize=auto;html=1;exitX=0.5;exitY=1;exitDx=0;exitDy=0;entryX=0;entryY=0.5;entryDx=0;entryDy=0;" edge="1" parent="WIyWlLk6GJQsqaUBKTNV-1" source="hb_F8Q6Ic74j5p_9CmOz-8" target="hb_F8Q6Ic74j5p_9CmOz-12">
          <mxGeometry relative="1" as="geometry" />
        </mxCell>
        <mxCell id="hb_F8Q6Ic74j5p_9CmOz-8" value="Trimestral" style="rounded=0;whiteSpace=wrap;html=1;" vertex="1" parent="WIyWlLk6GJQsqaUBKTNV-1">
          <mxGeometry x="230" y="570" width="120" height="60" as="geometry" />
        </mxCell>
        <mxCell id="hb_F8Q6Ic74j5p_9CmOz-9" style="edgeStyle=orthogonalEdgeStyle;rounded=0;orthogonalLoop=1;jettySize=auto;html=1;exitX=0.5;exitY=1;exitDx=0;exitDy=0;entryX=1;entryY=0.5;entryDx=0;entryDy=0;" edge="1" parent="WIyWlLk6GJQsqaUBKTNV-1" source="hb_F8Q6Ic74j5p_9CmOz-10" target="hb_F8Q6Ic74j5p_9CmOz-12">
          <mxGeometry relative="1" as="geometry" />
        </mxCell>
        <mxCell id="hb_F8Q6Ic74j5p_9CmOz-10" value="Semestral" style="rounded=0;whiteSpace=wrap;html=1;" vertex="1" parent="WIyWlLk6GJQsqaUBKTNV-1">
          <mxGeometry x="430" y="570" width="120" height="60" as="geometry" />
        </mxCell>
        <mxCell id="hb_F8Q6Ic74j5p_9CmOz-11" style="edgeStyle=orthogonalEdgeStyle;rounded=0;orthogonalLoop=1;jettySize=auto;html=1;exitX=0.5;exitY=1;exitDx=0;exitDy=0;" edge="1" parent="WIyWlLk6GJQsqaUBKTNV-1" source="hb_F8Q6Ic74j5p_9CmOz-12" target="hb_F8Q6Ic74j5p_9CmOz-16">
          <mxGeometry relative="1" as="geometry" />
        </mxCell>
        <mxCell id="hb_F8Q6Ic74j5p_9CmOz-12" value="Entregas" style="rounded=0;whiteSpace=wrap;html=1;" vertex="1" parent="WIyWlLk6GJQsqaUBKTNV-1">
          <mxGeometry x="330" y="680" width="120" height="60" as="geometry" />
        </mxCell>
        <mxCell id="hb_F8Q6Ic74j5p_9CmOz-13" style="edgeStyle=orthogonalEdgeStyle;rounded=0;orthogonalLoop=1;jettySize=auto;html=1;exitX=0.5;exitY=1;exitDx=0;exitDy=0;entryX=0.5;entryY=0;entryDx=0;entryDy=0;" edge="1" parent="WIyWlLk6GJQsqaUBKTNV-1" source="hb_F8Q6Ic74j5p_9CmOz-16" target="hb_F8Q6Ic74j5p_9CmOz-20">
          <mxGeometry relative="1" as="geometry" />
        </mxCell>
        <mxCell id="hb_F8Q6Ic74j5p_9CmOz-14" style="edgeStyle=orthogonalEdgeStyle;rounded=0;orthogonalLoop=1;jettySize=auto;html=1;exitX=1;exitY=0.5;exitDx=0;exitDy=0;entryX=0.5;entryY=0;entryDx=0;entryDy=0;" edge="1" parent="WIyWlLk6GJQsqaUBKTNV-1" source="hb_F8Q6Ic74j5p_9CmOz-16" target="hb_F8Q6Ic74j5p_9CmOz-22">
          <mxGeometry relative="1" as="geometry" />
        </mxCell>
        <mxCell id="hb_F8Q6Ic74j5p_9CmOz-15" style="edgeStyle=orthogonalEdgeStyle;rounded=0;orthogonalLoop=1;jettySize=auto;html=1;exitX=0;exitY=0.5;exitDx=0;exitDy=0;entryX=0.5;entryY=0;entryDx=0;entryDy=0;" edge="1" parent="WIyWlLk6GJQsqaUBKTNV-1" source="hb_F8Q6Ic74j5p_9CmOz-16" target="hb_F8Q6Ic74j5p_9CmOz-18">
          <mxGeometry relative="1" as="geometry" />
        </mxCell>
        <mxCell id="hb_F8Q6Ic74j5p_9CmOz-16" value="Definir&lt;div&gt;frequência de entregas&lt;/div&gt;" style="rhombus;whiteSpace=wrap;html=1;" vertex="1" parent="WIyWlLk6GJQsqaUBKTNV-1">
          <mxGeometry x="340" y="800" width="100" height="100" as="geometry" />
        </mxCell>
        <mxCell id="hb_F8Q6Ic74j5p_9CmOz-17" style="edgeStyle=orthogonalEdgeStyle;rounded=0;orthogonalLoop=1;jettySize=auto;html=1;exitX=0.5;exitY=1;exitDx=0;exitDy=0;entryX=0;entryY=0.5;entryDx=0;entryDy=0;" edge="1" parent="WIyWlLk6GJQsqaUBKTNV-1" source="hb_F8Q6Ic74j5p_9CmOz-18" target="hb_F8Q6Ic74j5p_9CmOz-24">
          <mxGeometry relative="1" as="geometry" />
        </mxCell>
        <mxCell id="hb_F8Q6Ic74j5p_9CmOz-18" value="Semanal" style="rounded=0;whiteSpace=wrap;html=1;" vertex="1" parent="WIyWlLk6GJQsqaUBKTNV-1">
          <mxGeometry x="170" y="950" width="120" height="60" as="geometry" />
        </mxCell>
        <mxCell id="hb_F8Q6Ic74j5p_9CmOz-19" style="edgeStyle=orthogonalEdgeStyle;rounded=0;orthogonalLoop=1;jettySize=auto;html=1;exitX=0.5;exitY=1;exitDx=0;exitDy=0;entryX=0.5;entryY=0;entryDx=0;entryDy=0;" edge="1" parent="WIyWlLk6GJQsqaUBKTNV-1" source="hb_F8Q6Ic74j5p_9CmOz-20" target="hb_F8Q6Ic74j5p_9CmOz-24">
          <mxGeometry relative="1" as="geometry" />
        </mxCell>
        <mxCell id="hb_F8Q6Ic74j5p_9CmOz-20" value="Quinzenal" style="rounded=0;whiteSpace=wrap;html=1;" vertex="1" parent="WIyWlLk6GJQsqaUBKTNV-1">
          <mxGeometry x="330" y="950" width="120" height="60" as="geometry" />
        </mxCell>
        <mxCell id="hb_F8Q6Ic74j5p_9CmOz-21" style="edgeStyle=orthogonalEdgeStyle;rounded=0;orthogonalLoop=1;jettySize=auto;html=1;exitX=0.5;exitY=1;exitDx=0;exitDy=0;entryX=1;entryY=0.5;entryDx=0;entryDy=0;" edge="1" parent="WIyWlLk6GJQsqaUBKTNV-1" source="hb_F8Q6Ic74j5p_9CmOz-22" target="hb_F8Q6Ic74j5p_9CmOz-24">
          <mxGeometry relative="1" as="geometry" />
        </mxCell>
        <mxCell id="hb_F8Q6Ic74j5p_9CmOz-22" value="Mensal" style="rounded=0;whiteSpace=wrap;html=1;" vertex="1" parent="WIyWlLk6GJQsqaUBKTNV-1">
          <mxGeometry x="490" y="950" width="120" height="60" as="geometry" />
        </mxCell>
        <mxCell id="hb_F8Q6Ic74j5p_9CmOz-23" style="edgeStyle=orthogonalEdgeStyle;rounded=0;orthogonalLoop=1;jettySize=auto;html=1;exitX=0.5;exitY=1;exitDx=0;exitDy=0;entryX=0.5;entryY=0;entryDx=0;entryDy=0;" edge="1" parent="WIyWlLk6GJQsqaUBKTNV-1" source="hb_F8Q6Ic74j5p_9CmOz-24" target="hb_F8Q6Ic74j5p_9CmOz-29">
          <mxGeometry relative="1" as="geometry" />
        </mxCell>
        <mxCell id="hb_F8Q6Ic74j5p_9CmOz-24" value="Definir local e hora" style="rounded=0;whiteSpace=wrap;html=1;" vertex="1" parent="WIyWlLk6GJQsqaUBKTNV-1">
          <mxGeometry x="330" y="1070" width="120" height="60" as="geometry" />
        </mxCell>
        <mxCell id="hb_F8Q6Ic74j5p_9CmOz-25" value="Fim" style="ellipse;whiteSpace=wrap;html=1;" vertex="1" parent="WIyWlLk6GJQsqaUBKTNV-1">
          <mxGeometry x="330" y="1300" width="120" height="80" as="geometry" />
        </mxCell>
        <mxCell id="hb_F8Q6Ic74j5p_9CmOz-26" style="edgeStyle=orthogonalEdgeStyle;rounded=0;orthogonalLoop=1;jettySize=auto;html=1;exitX=0.5;exitY=1;exitDx=0;exitDy=0;entryX=0.5;entryY=0;entryDx=0;entryDy=0;" edge="1" parent="WIyWlLk6GJQsqaUBKTNV-1" source="hb_F8Q6Ic74j5p_9CmOz-27" target="hb_F8Q6Ic74j5p_9CmOz-3">
          <mxGeometry relative="1" as="geometry" />
        </mxCell>
        <mxCell id="hb_F8Q6Ic74j5p_9CmOz-27" value="Gerir períodos sazonais AMAP" style="rounded=0;whiteSpace=wrap;html=1;" vertex="1" parent="WIyWlLk6GJQsqaUBKTNV-1">
          <mxGeometry x="330" y="220" width="120" height="60" as="geometry" />
        </mxCell>
        <mxCell id="hb_F8Q6Ic74j5p_9CmOz-28" style="edgeStyle=orthogonalEdgeStyle;rounded=0;orthogonalLoop=1;jettySize=auto;html=1;exitX=0.5;exitY=1;exitDx=0;exitDy=0;entryX=0.5;entryY=0;entryDx=0;entryDy=0;" edge="1" parent="WIyWlLk6GJQsqaUBKTNV-1" source="hb_F8Q6Ic74j5p_9CmOz-29" target="hb_F8Q6Ic74j5p_9CmOz-25">
          <mxGeometry relative="1" as="geometry" />
        </mxCell>
        <mxCell id="hb_F8Q6Ic74j5p_9CmOz-29" value="Notificar produtores" style="rounded=0;whiteSpace=wrap;html=1;" vertex="1" parent="WIyWlLk6GJQsqaUBKTNV-1">
          <mxGeometry x="330" y="1190" width="120" height="60" as="geometry" />
        </mxCell>
      </root>
    </mxGraphModel>
  </diagram>
</mxfile>
